<svg width="458" height="458" viewBox="0 0 458 458" fill="none" xmlns="http://www.w3.org/2000/svg">
<path d="M335.485 194.925C283.273 82.5545 256.114 39.8689 170.811 41.6551C140.423 42.2734 147.705 19.6253 124.53 28.2128C101.401 36.8003 121.256 49.3724 97.5769 68.8145C31.1211 123.385 37.2354 173.857 68.0588 294.151C81.0431 344.828 36.7545 347.301 54.273 396.399C67.0741 432.215 161.422 447.214 260.945 410.299C360.492 373.362 423.215 300.059 410.414 264.243C392.895 215.123 357.492 242.236 335.485 194.925ZM250.16 380.026C161.262 413.002 88.2108 393.628 85.1193 384.995C79.8065 370.11 113.813 320.508 215.443 282.792C317.073 245.076 373.797 259.068 379.728 275.67C383.232 285.494 339.08 347.027 250.16 380.026ZM221.58 300.013C175.116 317.257 142.827 336.974 121.897 354.721C136.621 368.095 164.193 371.346 191.65 361.156C226.618 348.217 248.121 318.425 239.626 294.654L239.259 293.83C233.511 295.708 227.626 297.746 221.58 300.013Z" fill="black"/>
</svg>
